<?xml version="1.0" encoding="UTF-8" standalone="no"?>
<!DOCTYPE svg PUBLIC "-//W3C//DTD SVG 1.1//EN" "http://www.w3.org/Graphics/SVG/1.1/DTD/svg11.dtd">
<svg version="1.1" xmlns="http://www.w3.org/2000/svg" xmlns:xlink="http://www.w3.org/1999/xlink" preserveAspectRatio="xMidYMid meet" viewBox="0 0 640 640" width="640" height="640"><defs><path d="M94.34 94.34L544.66 94.34L544.66 545.66L94.34 545.66L94.34 94.34Z" id="aBD9N1sfz"></path><path d="M336.23 94.34C336.23 142.63 297.02 181.84 248.73 181.84C200.44 181.84 161.23 142.63 161.23 94.34C161.23 46.04 200.44 6.84 248.73 6.84C297.02 6.84 336.23 46.04 336.23 94.34Z" id="c2SxuUgNFH"></path><path d="M336.23 245.72C336.23 294.02 297.02 333.22 248.73 333.22C200.44 333.22 161.23 294.02 161.23 245.72C161.23 197.43 200.44 158.22 248.73 158.22C297.02 158.22 336.23 197.43 336.23 245.72Z" id="g1qvtyMPcK"></path><path d="M336.23 393.16C336.23 441.45 297.02 480.66 248.73 480.66C200.44 480.66 161.23 441.45 161.23 393.16C161.23 344.86 200.44 305.66 248.73 305.66C297.02 305.66 336.23 344.86 336.23 393.16Z" id="a5CFdjqKn"></path><path d="M336.23 545.66C336.23 593.96 297.02 633.16 248.73 633.16C200.44 633.16 161.23 593.96 161.23 545.66C161.23 497.37 200.44 458.16 248.73 458.16C297.02 458.16 336.23 497.37 336.23 545.66Z" id="a5n7IPM2o6"></path><path d="M483.67 94.34C483.67 142.63 444.46 181.84 396.17 181.84C347.87 181.84 308.67 142.63 308.67 94.34C308.67 46.04 347.87 6.84 396.17 6.84C444.46 6.84 483.67 46.04 483.67 94.34Z" id="bSUJn3zBK"></path><path d="M483.67 245.72C483.67 294.02 444.46 333.22 396.17 333.22C347.87 333.22 308.67 294.02 308.67 245.72C308.67 197.43 347.87 158.22 396.17 158.22C444.46 158.22 483.67 197.43 483.67 245.72Z" id="a1Qp9767x4"></path><path d="M483.67 393.16C483.67 441.45 444.46 480.66 396.17 480.66C347.87 480.66 308.67 441.45 308.67 393.16C308.67 344.86 347.87 305.66 396.17 305.66C444.46 305.66 483.67 344.86 483.67 393.16Z" id="d1DmzzajLM"></path><path d="M483.67 545.66C483.67 593.96 444.46 633.16 396.17 633.16C347.87 633.16 308.67 593.96 308.67 545.66C308.67 497.37 347.87 458.16 396.17 458.16C444.46 458.16 483.67 497.37 483.67 545.66Z" id="aNVl5ugoT"></path><path d="M632.16 94.34C632.16 142.63 592.95 181.84 544.66 181.84C496.37 181.84 457.16 142.63 457.16 94.34C457.16 46.04 496.37 6.84 544.66 6.84C592.95 6.84 632.16 46.04 632.16 94.34Z" id="fYIqUBfxP"></path><path d="M632.16 245.72C632.16 294.02 592.95 333.22 544.66 333.22C496.37 333.22 457.16 294.02 457.16 245.72C457.16 197.43 496.37 158.22 544.66 158.22C592.95 158.22 632.16 197.43 632.16 245.72Z" id="c1cVRDrMlC"></path><path d="M632.16 393.16C632.16 441.45 592.95 480.66 544.66 480.66C496.37 480.66 457.16 441.45 457.16 393.16C457.16 344.86 496.37 305.66 544.66 305.66C592.95 305.66 632.16 344.86 632.16 393.16Z" id="d2QqJaXASZ"></path><path d="M632.16 545.66C632.16 593.96 592.95 633.16 544.66 633.16C496.37 633.16 457.16 593.96 457.16 545.66C457.16 497.37 496.37 458.16 544.66 458.16C592.95 458.16 632.16 497.37 632.16 545.66Z" id="m1R6GZDcJu"></path><path d="M181.84 94.34C181.84 142.63 142.63 181.84 94.34 181.84C46.04 181.84 6.84 142.63 6.84 94.34C6.84 46.04 46.04 6.84 94.34 6.84C142.63 6.84 181.84 46.04 181.84 94.34Z" id="grlk7U3hz"></path><path d="M181.84 245.72C181.84 294.02 142.63 333.22 94.34 333.22C46.04 333.22 6.84 294.02 6.84 245.72C6.84 197.43 46.04 158.22 94.34 158.22C142.63 158.22 181.84 197.43 181.84 245.72Z" id="b7UFwhvmvs"></path><path d="M181.84 393.16C181.84 441.45 142.63 480.66 94.34 480.66C46.04 480.66 6.84 441.45 6.84 393.16C6.84 344.86 46.04 305.66 94.34 305.66C142.63 305.66 181.84 344.86 181.84 393.16Z" id="aESS9lU6X"></path><path d="M181.84 545.66C181.84 593.96 142.63 633.16 94.34 633.16C46.04 633.16 6.84 593.96 6.84 545.66C6.84 497.37 46.04 458.16 94.34 458.16C142.63 458.16 181.84 497.37 181.84 545.66Z" id="howO7SnEA"></path><path d="M495 95C495 122.6 517.4 145 545 145C572.6 145 595 122.6 595 95C595 67.41 572.6 45 545 45C517.4 45 495 67.41 495 95Z" id="dfYw1qmXX"></path><path d="M45 545C45 572.59 67.4 595 95 595C122.6 595 145 572.59 145 545C145 517.4 122.6 495 95 495C67.4 495 45 517.4 45 545Z" id="a1iwp2wT7J"></path><path d="M345 245C345 272.6 367.4 295 395 295C422.6 295 445 272.6 445 245C445 217.41 422.6 195 395 195C367.4 195 345 217.41 345 245Z" id="b1HWO59gRO"></path><path d="M195 245C195 272.6 217.4 295 245 295C272.59 295 295 272.6 295 245C295 217.41 272.59 195 245 195C217.4 195 195 217.41 195 245Z" id="bqFrZPM9"></path><path d="M45 395C45 422.6 67.4 445 95 445C122.6 445 145 422.6 145 395C145 367.41 122.6 345 95 345C67.4 345 45 367.41 45 395Z" id="a1Uunp2vk"></path><path d="M345 395C345 422.6 367.41 445 395 445C422.6 445 445 422.6 445 395C445 367.41 422.6 345 395 345C367.41 345 345 367.41 345 395Z" id="a2asvA5OS8"></path><path d="M495 245C495 272.6 517.4 295 545 295C572.6 295 595 272.6 595 245C595 217.41 572.6 195 545 195C517.4 195 495 217.41 495 245Z" id="a1AWqb4gUO"></path><path d="M195 545C195 572.59 217.4 595 245 595C272.59 595 295 572.59 295 545C295 517.4 272.59 495 245 495C217.4 495 195 517.4 195 545Z" id="bGVOYdIyJ"></path><path d="M45 245C45 272.6 67.4 295 95 295C122.6 295 145 272.6 145 245C145 217.41 122.6 195 95 195C67.4 195 45 217.41 45 245Z" id="cp4C87krf"></path><path d="M195 95C195 122.6 217.4 145 245 145C272.59 145 295 122.6 295 95C295 67.41 272.59 45 245 45C217.4 45 195 67.41 195 95Z" id="e1H5zqDqNV"></path><path d="M145 95C145 122.6 122.6 145 95 145C67.4 145 45 122.6 45 95C45 67.41 67.4 45 95 45C122.6 45 145 67.41 145 95Z" id="b95XSDU7b"></path><path d="M345 545C345 572.59 367.41 595 395 595C422.6 595 445 572.59 445 545C445 517.4 422.6 495 395 495C367.41 495 345 517.4 345 545Z" id="a2wpaNRN1E"></path><path d="M345 95C345 122.6 367.41 145 395 145C422.6 145 445 122.6 445 95C445 67.41 422.6 45 395 45C367.41 45 345 67.41 345 95Z" id="c2iGRB1R8X"></path><path d="M492.94 395C492.94 422.6 515.34 445 542.94 445C570.53 445 592.94 422.6 592.94 395C592.94 367.41 570.53 345 542.94 345C515.34 345 492.94 367.41 492.94 395Z" id="c5uFSxWR0"></path><path d="M495 545C495 572.59 517.4 595 545 595C572.6 595 595 572.59 595 545C595 517.4 572.6 495 545 495C517.4 495 495 517.4 495 545Z" id="bN7bGtpAE"></path><path d="M195 395C195 422.6 217.4 445 245 445C272.59 445 295 422.6 295 395C295 367.41 272.59 345 245 345C217.4 345 195 367.41 195 395Z" id="a5xpTsffzi"></path><path d="M245 95L95 95" id="azyK4yqcN"></path><path d="M95 395L95 245" id="dlw8UpLIQ"></path><path d="M395 245L95 545" id="c3IVx1cPv1"></path><path d="M395 245L545 395" id="b6s8lDkcDT"></path><path d="M395 95L245 245" id="cmk4EJMiz"></path><path d="M545 245L545 95" id="cwsiwwXr0"></path><path d="M395 395L245 547.67" id="i15X2Mj1IG"></path><path d="M545 547.67L395 547.67" id="b2jwRjyvdY"></path></defs><g><g><g><use xlink:href="#aBD9N1sfz" opacity="1" fill="#1a54a3" fill-opacity="1"></use></g><g><g><use xlink:href="#c2SxuUgNFH" opacity="1" fill="#1a54a3" fill-opacity="1"></use></g><g><use xlink:href="#g1qvtyMPcK" opacity="1" fill="#1a54a3" fill-opacity="1"></use></g><g><use xlink:href="#a5CFdjqKn" opacity="1" fill="#1a54a3" fill-opacity="1"></use></g><g><use xlink:href="#a5n7IPM2o6" opacity="1" fill="#1a54a3" fill-opacity="1"></use></g></g><g><g><use xlink:href="#bSUJn3zBK" opacity="1" fill="#1a54a3" fill-opacity="1"></use></g><g><use xlink:href="#a1Qp9767x4" opacity="1" fill="#1a54a3" fill-opacity="1"></use></g><g><use xlink:href="#d1DmzzajLM" opacity="1" fill="#1a54a3" fill-opacity="1"></use></g><g><use xlink:href="#aNVl5ugoT" opacity="1" fill="#1a54a3" fill-opacity="1"></use></g></g><g><g><use xlink:href="#fYIqUBfxP" opacity="1" fill="#1a54a3" fill-opacity="1"></use></g><g><use xlink:href="#c1cVRDrMlC" opacity="1" fill="#1a54a3" fill-opacity="1"></use></g><g><use xlink:href="#d2QqJaXASZ" opacity="1" fill="#1a54a3" fill-opacity="1"></use></g><g><use xlink:href="#m1R6GZDcJu" opacity="1" fill="#1a54a3" fill-opacity="1"></use></g></g><g><g><use xlink:href="#grlk7U3hz" opacity="1" fill="#1a54a3" fill-opacity="1"></use></g><g><use xlink:href="#b7UFwhvmvs" opacity="1" fill="#1a54a3" fill-opacity="1"></use></g><g><use xlink:href="#aESS9lU6X" opacity="1" fill="#1a54a3" fill-opacity="1"></use></g><g><use xlink:href="#howO7SnEA" opacity="1" fill="#1a54a3" fill-opacity="1"></use></g></g><g><g><use xlink:href="#dfYw1qmXX" opacity="1" fill="#ffffff" fill-opacity="1"></use></g><g><use xlink:href="#a1iwp2wT7J" opacity="1" fill="#ffffff" fill-opacity="1"></use></g><g><use xlink:href="#b1HWO59gRO" opacity="1" fill="#ffffff" fill-opacity="1"></use></g><g><use xlink:href="#bqFrZPM9" opacity="1" fill="#ffffff" fill-opacity="1"></use><g><use xlink:href="#bqFrZPM9" opacity="1" fill-opacity="0" stroke="#48fbf8" stroke-width="0" stroke-opacity="1"></use></g></g><g><use xlink:href="#a1Uunp2vk" opacity="1" fill="#ffffff" fill-opacity="1"></use></g><g><use xlink:href="#a2asvA5OS8" opacity="1" fill="#ffffff" fill-opacity="1"></use></g><g><use xlink:href="#a1AWqb4gUO" opacity="1" fill="#ffffff" fill-opacity="1"></use></g><g><use xlink:href="#bGVOYdIyJ" opacity="1" fill="#ffffff" fill-opacity="1"></use></g><g><use xlink:href="#cp4C87krf" opacity="1" fill="#ffffff" fill-opacity="1"></use></g><g><use xlink:href="#e1H5zqDqNV" opacity="1" fill="#ffffff" fill-opacity="1"></use></g><g><use xlink:href="#b95XSDU7b" opacity="1" fill="#ffffff" fill-opacity="1"></use><g><use xlink:href="#b95XSDU7b" opacity="1" fill-opacity="0" stroke="#48fbf8" stroke-width="0" stroke-opacity="1"></use></g></g><g><use xlink:href="#a2wpaNRN1E" opacity="1" fill="#ffffff" fill-opacity="1"></use></g><g><use xlink:href="#c2iGRB1R8X" opacity="1" fill="#ffffff" fill-opacity="1"></use></g><g><use xlink:href="#c5uFSxWR0" opacity="1" fill="#ffffff" fill-opacity="1"></use></g><g><use xlink:href="#bN7bGtpAE" opacity="1" fill="#ffffff" fill-opacity="1"></use></g><g><use xlink:href="#a5xpTsffzi" opacity="1" fill="#ffffff" fill-opacity="1"></use></g><g><g><use xlink:href="#azyK4yqcN" opacity="1" fill-opacity="0" stroke="#ffffff" stroke-width="16" stroke-opacity="1"></use></g></g><g><g><use xlink:href="#dlw8UpLIQ" opacity="1" fill-opacity="0" stroke="#ffffff" stroke-width="14" stroke-opacity="1"></use></g></g><g><g><use xlink:href="#c3IVx1cPv1" opacity="1" fill-opacity="0" stroke="#ffffff" stroke-width="14" stroke-opacity="1"></use></g></g><g><g><use xlink:href="#b6s8lDkcDT" opacity="1" fill-opacity="0" stroke="#ffffff" stroke-width="14" stroke-opacity="1"></use></g></g><g><g><use xlink:href="#cmk4EJMiz" opacity="1" fill-opacity="0" stroke="#ffffff" stroke-width="16" stroke-opacity="1"></use></g></g><g><g><use xlink:href="#cwsiwwXr0" opacity="1" fill-opacity="0" stroke="#ffffff" stroke-width="14" stroke-opacity="1"></use></g></g><g><g><use xlink:href="#i15X2Mj1IG" opacity="1" fill-opacity="0" stroke="#ffffff" stroke-width="14" stroke-opacity="1"></use></g></g><g><g><use xlink:href="#b2jwRjyvdY" opacity="1" fill-opacity="0" stroke="#feffff" stroke-width="14" stroke-opacity="1"></use></g></g></g></g></g></svg>