<?xml version="1.0" encoding="UTF-8" standalone="no"?>
<!DOCTYPE svg PUBLIC "-//W3C//DTD SVG 1.1//EN" "http://www.w3.org/Graphics/SVG/1.1/DTD/svg11.dtd">
<svg version="1.1" xmlns="http://www.w3.org/2000/svg" xmlns:xlink="http://www.w3.org/1999/xlink" preserveAspectRatio="xMidYMid meet" viewBox="0 0 720 720" width="720" height="720"><defs><path d="" id="bIIZNyQin"></path><path d="M343.46 185.18L350.98 184.1L370.87 185.18L386.2 185.98L400.98 187.84L417.65 190.55L437 194.59L456.74 201.93L469.36 208.13L480.12 212.97L489.8 215.66L498.67 216.47L518.29 216.47L540.87 217.81L564.26 224.53L581.98 232.87L588.46 237.97L590.07 251.04L585.71 254.28L584.97 269.27L581.98 271.21L580.49 282.4L572.28 292.35L558.89 293.94L536.57 291.04L520.03 283.64L511.88 275.98L504.47 252.28L501.51 251.04L493.61 227.96L488.67 223.39L481.75 223.39L477.13 227.96L472.76 245.48L469.36 248.39L454.31 269.27L435.87 273.15L422.43 271.87L375.67 254.28L366.56 243.37L362.11 227.96L358 221.79L355.95 205.7L350.13 201.93L335.74 203.3L239.85 257.75L232.66 264.26L227.18 259.46L232.66 249.87L335.74 188.92L343.46 185.18Z" id="e1fNLLM4XS"></path><path d="M468.45 249.29L470.86 220.92L464.13 210.59L447.78 202.65L397.06 192.08L373.74 193.28L367.73 197.12L363.51 205.32L361.68 226.06" id="bdjgDK4mj"></path><path d="M581.38 271.02L581.38 244.73L576.54 235.38L559.24 227.42L540 221.54L513.22 219.47L504.57 221.54L502.15 227.42L504.57 251.65" id="ankxxxmIe"></path><path d="M256.66 358.33L255.14 366.7L227.18 369.36L216.73 363.65L203.8 343.5L195.44 318.79L188.98 292.17L191.26 273.54L198.86 260.23L210.27 255.67L221.3 258.33L232.32 265.17" id="e1e1YMTeO8"></path><path d="M545.08 225.08L548.7 231.88L548.7 241.07L545.08 243.45L542.72 272.32L543.4 293.94L545.08 320.02L540.67 374.3L536.6 411.5L524.39 447.26L508.4 472.26L491.17 484.35L464.99 499.73L460.88 523.85L451.46 554.44L434.99 576.2L409.7 590.32L383.82 596.2L357.35 600.91L331.46 600.91L302.05 597.97L281.46 592.08L260.29 578.55L245.58 563.85L236.17 549.14L230.79 535.05L227.55 522.41L226.38 509.46L227.55 502.99L229.99 497.79L232.86 465.68L233.38 433.3L232.86 413.98L216.68 365.34" id="baPnkcmtu"></path><path d="M577.96 242.43L542.72 262.15" id="a2NRYaMTJQ"></path><path d="M580.68 253.65L551.08 272.02L542.72 272.02" id="a4ZyYnlokj"></path><path d="M425.44 249.29L406.76 248.12L392.29 246.54L379.39 241.8L369.65 235.75L381.5 229.43L399.13 223.12L414.13 228.38L427.81 245.24L425.44 249.29Z" id="aRCC7drDp"></path><path d="M420.97 237.85L420.18 244.7L414.13 248.38" id="b4L9ZDVlF5"></path><path d="M412.02 227.59L414.13 233.64L414.13 236.8L414.13 240.75L411.23 243.12L406.76 246.01L402.29 244.17L398.07 240.75L395.44 236.8L394.13 230.22L395.44 225.08" id="c1Y0oVD1"></path><path d="M400.4 231.07L402.77 230.06L406.73 230.51L409.1 231.98L410.34 234.12L409.78 236.8L407.55 239.02L404.13 239.02L400.71 236.8L399.39 233.64L400.4 231.07Z" id="f17vrSQoj1"></path><path d="M510.75 260.63L518.45 263.63L526.15 266.63" id="bn50PYCEP"></path><path d="M510.75 260.63L507.55 246.03L511.75 245.24L517.55 246.03L522.75 248.03L526.55 251.63L529.75 259.03L530.75 264.63L529.15 266.63L525.55 266.63" id="gatZ39Ux70"></path><path d="M522.9 250.07L524.41 252.29L525.28 255.15L526.15 257.96L525.71 259.58L524.41 261.64L522.25 262.83L518.45 261.64L515.66 258.72L513.39 254.4L512.74 251.26L513.71 249.1L516.3 248.34L519.98 247.91L522.9 250.07Z" id="b16MRhmp08"></path><path d="" id="a53QZokMb"></path><path d="M521.71 254.18L520.41 254.18L519.15 254.72L519.15 256.34L519.87 257.42L521.71 257.64L523.01 256.99L522.68 255.37L521.71 254.18Z" id="b1iydIxViX"></path><path d="M499.13 328.96L507.55 324.3L513.47 318.63L517.13 310.3L518.45 301.3L517.13 290.96L512.74 281.63L507.55 272.96L488.47 245.24" id="c2dAmLplMM"></path><path d="M435.47 312.96L439.13 319.96L444.13 323.3L452.47 324.3" id="kxLfdytaa"></path><path d="M478.8 309.63L470.86 311.3L466.47 312.96L462.13 313.96L459.13 311.3L459.13 307.3L466.47 302.3L474.47 302.3L484.13 305.96L478.8 309.63Z" id="c3fiFUo9Mj"></path><path d="M500.27 310.04L505.87 306.64L510.07 306.04L510.07 310.04L508.27 313.96L503.87 318.04L497.8 320.86L494.47 319.86L494.47 316.86L496.8 312.96L500.27 310.04Z" id="diNLLXO5o"></path><path d="M436.47 298.98L434.47 303.31L434.47 309.64L435.47 312.96" id="f106vWZby0"></path><path d="M519.44 378.91L516.8 372.58L513.47 365.91L510.75 360L504.8 351.58L494.47 344.58L491.8 346.91L487.47 347.91L484.13 346.91L479.8 344.58" id="bm8XAC6Ct"></path><path d="M420.97 373.24L427.81 369.58L439.13 364.91L449.8 359.24L459.13 354.58L470.86 348.58L479.8 344.58" id="amJlSIKx"></path><path d="M504.81 383.44L499.62 385.04L487.81 387.64L473.61 387.64L460.41 386.44L448.01 385.04" id="b2JKq8xfqa"></path><path d="M509.27 376.38L505.61 373.24L499.62 370.04L493.27 367.71L485.27 368.38L477.27 368.38L468.94 366.71L461.27 366.71L451.27 368.38L442.94 370.04L435.47 373.24" id="aXXaJLtwe"></path><path d="M509.27 127.09L503.46 123.09L497.61 118.09L490.11 110.59L470.86 103.59L450.38 98.59L430.61 93.59L404.13 93.59L384.61 93.59L369.65 96.09L360.61 103.59L352.11 113.09L337.61 123.09L325.61 123.09L315.11 123.09L306.11 123.09L295.61 118.09L285.11 123.09L275.11 134.09L273.11 151.09L273.11 166.09L269.61 198.59L268.11 215.09L258.61 231.59" id="ajn1BB2t1"></path><path d="" id="bOxnPNfyt"></path><path d="M229.8 249.29L247.8 239.02L258.61 231.59" id="d1JWQK9gXp"></path><path d="M542.72 215.69L538.09 206.19L530.75 186.69L523.01 157.19L523.01 116.19L519.15 103.69L503.46 75.69L482.09 58.69L445.09 45.19L427.81 41.19L392.59 39.69L375.09 39.69L355.59 42.69L337.59 45.19L319.09 51.69L299.3 58.69L276.8 67.19L265.3 74.19L256.66 75.69L241.8 85.19L221.3 103.69L205.8 121.19L203.8 131.69L193.3 148.19L185.8 170.19L183.3 193.19L183.3 223.12L187.8 281.69" id="f7yN0mjwn"></path><path d="M523.01 156.19L509.27 126.19" id="fDd9sXPAv"></path><path d="M761.63 633.5L743.5 604.95L733.5 592.45L709 560.95L683.5 544.45L675 540.45L657.5 530.45L633 523.95L609.5 521.45L589 519.95L565 518.45L541.77 516.95L512.74 512.95L494.47 509.95L481 504.45L465 501.45" id="m9XKTmXkO"></path><path d="M0 497L15.31 493.5L29.81 488L44.31 483.5L56.81 479L67.81 479L79.81 481L96.81 481L122.81 479L138.31 481L162.31 481L182.31 481L194.81 488L196.31 476L206.81 466.5L217.81 466.5L231.81 469.5" id="ewqp3fI1q"></path><path d="M280.15 409.05L275.15 402.55L264.65 383.44L256.66 358.91" id="dIQ3BiClm"></path></defs><g><g><g><g><use xlink:href="#bIIZNyQin" opacity="1" fill-opacity="0" stroke="#ffffff" stroke-width="2" stroke-opacity="1"></use></g></g><g><g><use xlink:href="#e1fNLLM4XS" opacity="1" fill-opacity="0" stroke="#ffffff" stroke-width="2" stroke-opacity="1"></use></g></g><g><g><use xlink:href="#bdjgDK4mj" opacity="1" fill-opacity="0" stroke="#ffffff" stroke-width="2" stroke-opacity="1"></use></g></g><g><g><use xlink:href="#ankxxxmIe" opacity="1" fill-opacity="0" stroke="#ffffff" stroke-width="2" stroke-opacity="1"></use></g></g><g><g><use xlink:href="#e1e1YMTeO8" opacity="1" fill-opacity="0" stroke="#ffffff" stroke-width="2" stroke-opacity="1"></use></g></g><g><g><use xlink:href="#baPnkcmtu" opacity="1" fill-opacity="0" stroke="#ffffff" stroke-width="2" stroke-opacity="1"></use></g></g><g><g><use xlink:href="#a2NRYaMTJQ" opacity="1" fill-opacity="0" stroke="#ffffff" stroke-width="2" stroke-opacity="1"></use></g></g><g><g><use xlink:href="#a4ZyYnlokj" opacity="1" fill-opacity="0" stroke="#ffffff" stroke-width="2" stroke-opacity="1"></use></g></g><g><g><use xlink:href="#aRCC7drDp" opacity="1" fill-opacity="0" stroke="#ffffff" stroke-width="2" stroke-opacity="1"></use></g></g><g><g><use xlink:href="#b4L9ZDVlF5" opacity="1" fill-opacity="0" stroke="#ffffff" stroke-width="2" stroke-opacity="1"></use></g></g><g><g><use xlink:href="#c1Y0oVD1" opacity="1" fill-opacity="0" stroke="#ffffff" stroke-width="2" stroke-opacity="1"></use></g></g><g><g><use xlink:href="#f17vrSQoj1" opacity="1" fill-opacity="0" stroke="#ffffff" stroke-width="2" stroke-opacity="1"></use></g></g><g><g><use xlink:href="#bn50PYCEP" opacity="1" fill-opacity="0" stroke="#ffffff" stroke-width="2" stroke-opacity="1"></use></g></g><g><g><use xlink:href="#gatZ39Ux70" opacity="1" fill-opacity="0" stroke="#ffffff" stroke-width="2" stroke-opacity="1"></use></g></g><g><g><use xlink:href="#b16MRhmp08" opacity="1" fill-opacity="0" stroke="#ffffff" stroke-width="2" stroke-opacity="1"></use></g></g><g><g><use xlink:href="#a53QZokMb" opacity="1" fill-opacity="0" stroke="#ffffff" stroke-width="2" stroke-opacity="1"></use></g></g><g><g><use xlink:href="#b1iydIxViX" opacity="1" fill-opacity="0" stroke="#ffffff" stroke-width="2" stroke-opacity="1"></use></g></g><g><g><use xlink:href="#c2dAmLplMM" opacity="1" fill-opacity="0" stroke="#ffffff" stroke-width="2" stroke-opacity="1"></use></g></g><g><g><use xlink:href="#kxLfdytaa" opacity="1" fill-opacity="0" stroke="#ffffff" stroke-width="2" stroke-opacity="1"></use></g></g><g><g><use xlink:href="#c3fiFUo9Mj" opacity="1" fill-opacity="0" stroke="#ffffff" stroke-width="2" stroke-opacity="1"></use></g></g><g><g><use xlink:href="#diNLLXO5o" opacity="1" fill-opacity="0" stroke="#ffffff" stroke-width="2" stroke-opacity="1"></use></g></g><g><g><use xlink:href="#f106vWZby0" opacity="1" fill-opacity="0" stroke="#ffffff" stroke-width="2" stroke-opacity="1"></use></g></g><g><g><use xlink:href="#bm8XAC6Ct" opacity="1" fill-opacity="0" stroke="#ffffff" stroke-width="2" stroke-opacity="1"></use></g></g><g><g><use xlink:href="#amJlSIKx" opacity="1" fill-opacity="0" stroke="#ffffff" stroke-width="2" stroke-opacity="1"></use></g></g><g><g><use xlink:href="#b2JKq8xfqa" opacity="1" fill-opacity="0" stroke="#ffffff" stroke-width="2" stroke-opacity="1"></use></g></g><g><g><use xlink:href="#aXXaJLtwe" opacity="1" fill-opacity="0" stroke="#ffffff" stroke-width="2" stroke-opacity="1"></use></g></g><g><g><use xlink:href="#ajn1BB2t1" opacity="1" fill-opacity="0" stroke="#ffffff" stroke-width="2" stroke-opacity="1"></use></g></g><g><g><use xlink:href="#bOxnPNfyt" opacity="1" fill-opacity="0" stroke="#ffffff" stroke-width="2" stroke-opacity="1"></use></g></g><g><g><use xlink:href="#d1JWQK9gXp" opacity="1" fill-opacity="0" stroke="#ffffff" stroke-width="2" stroke-opacity="1"></use></g></g><g><g><use xlink:href="#f7yN0mjwn" opacity="1" fill-opacity="0" stroke="#ffffff" stroke-width="2" stroke-opacity="1"></use></g></g><g><g><use xlink:href="#fDd9sXPAv" opacity="1" fill-opacity="0" stroke="#ffffff" stroke-width="2" stroke-opacity="1"></use></g></g><g><g><use xlink:href="#m9XKTmXkO" opacity="1" fill-opacity="0" stroke="#ffffff" stroke-width="2" stroke-opacity="1"></use></g></g><g><g><use xlink:href="#ewqp3fI1q" opacity="1" fill-opacity="0" stroke="#ffffff" stroke-width="2" stroke-opacity="1"></use></g></g><g><g><use xlink:href="#dIQ3BiClm" opacity="1" fill-opacity="0" stroke="#ffffff" stroke-width="2" stroke-opacity="1"></use></g></g></g></g></svg>