<?xml version="1.0" encoding="UTF-8" standalone="no"?>
<!DOCTYPE svg PUBLIC "-//W3C//DTD SVG 1.1//EN" "http://www.w3.org/Graphics/SVG/1.1/DTD/svg11.dtd">
<svg version="1.1" xmlns="http://www.w3.org/2000/svg" xmlns:xlink="http://www.w3.org/1999/xlink" preserveAspectRatio="xMidYMid meet" viewBox="0 0 640 640" width="640" height="640"><defs><path d="M502.86 438.4C497.78 443.48 497.78 451.73 502.86 456.81C505.39 459.35 525.65 479.6 528.18 482.13C534.24 488.19 537.58 496.26 537.58 504.83C537.58 513.41 534.24 521.47 528.18 527.53C528.12 527.6 527.6 528.11 527.53 528.18C521.47 534.24 513.41 537.58 504.83 537.58C496.26 537.58 488.2 534.24 482.13 528.18C479.6 525.64 459.35 505.39 456.82 502.86C452.43 498.48 445.56 497.79 440.39 501.23C416.76 516.96 390.73 527.75 363.02 533.31C356.94 534.53 352.56 539.87 352.56 546.08C352.56 549.65 352.56 578.27 352.56 581.85C352.56 599.55 338.16 613.95 320.46 613.95C320.37 613.95 319.64 613.95 319.55 613.95C301.84 613.95 287.44 599.55 287.44 581.85C287.44 578.27 287.44 549.65 287.44 546.08C287.44 539.87 283.06 534.53 276.98 533.31C249.27 527.75 223.24 516.96 199.61 501.23C194.45 497.79 187.57 498.47 183.18 502.86C180.65 505.39 160.4 525.65 157.87 528.18C151.81 534.24 143.74 537.58 135.17 537.58C126.59 537.58 118.53 534.24 112.47 528.18C112.4 528.11 111.89 527.6 111.82 527.53C105.76 521.47 102.42 513.41 102.42 504.83C102.42 496.26 105.76 488.19 111.82 482.13C114.35 479.6 134.61 459.34 137.14 456.81C141.53 452.43 142.21 445.55 138.77 440.39C123.04 416.76 112.25 390.73 106.69 363.02C105.47 356.94 100.13 352.56 93.92 352.56C90.34 352.56 61.73 352.56 58.15 352.56C40.45 352.56 26.05 338.16 26.05 320.46C26.05 320.37 26.05 319.64 26.05 319.54C26.05 301.84 40.45 287.44 58.15 287.44C61.73 287.44 90.35 287.44 93.92 287.44C100.13 287.44 105.47 283.06 106.69 276.98C112.25 249.27 123.04 223.24 138.77 199.61C142.21 194.45 141.53 187.57 137.14 183.18C134.61 180.65 114.35 160.4 111.82 157.87C105.76 151.81 102.42 143.74 102.42 135.17C102.42 126.59 105.76 118.53 111.82 112.47C111.89 112.4 112.4 111.88 112.47 111.82C118.53 105.76 126.59 102.42 135.17 102.42C143.74 102.42 151.81 105.76 157.87 111.82C160.4 114.35 180.65 134.61 183.18 137.14C188.27 142.22 196.52 142.22 201.6 137.13C206.69 132.05 206.69 123.8 201.6 118.72C199.07 116.19 178.82 95.94 176.29 93.4C165.31 82.42 150.7 76.37 135.17 76.37C119.64 76.37 105.03 82.42 94.05 93.4C93.99 93.47 93.47 93.98 93.41 94.05C82.42 105.03 76.37 119.63 76.37 135.17C76.37 150.7 82.42 165.31 93.41 176.29C95.2 178.08 109.55 192.43 111.35 194.22C98.68 215.17 89.34 237.69 83.49 261.39C80.96 261.39 60.69 261.39 58.15 261.39C26.09 261.39 0 287.48 0 319.54C0 319.63 0 320.36 0 320.46C0 352.52 26.09 378.61 58.15 378.61C60.69 378.61 80.96 378.61 83.49 378.61C89.33 402.31 98.67 424.82 111.34 445.77C109.55 447.57 95.2 461.92 93.41 463.71C82.42 474.69 76.37 489.29 76.37 504.83C76.37 520.36 82.42 534.96 93.41 545.95C93.47 546.01 93.99 546.53 94.05 546.59C105.04 557.58 119.64 563.62 135.17 563.62C150.7 563.62 165.31 557.58 176.29 546.59C178.08 544.8 192.43 530.45 194.23 528.65C215.18 541.33 237.69 550.66 261.39 556.51C261.39 559.04 261.39 579.31 261.39 581.84C261.39 613.91 287.48 640 319.55 640C319.64 640 320.37 640 320.46 640C352.52 640 378.61 613.91 378.61 581.84C378.61 579.31 378.61 559.04 378.61 556.51C402.31 550.66 424.82 541.33 445.78 528.65C447.57 530.45 461.92 544.8 463.71 546.59C474.7 557.58 489.3 563.62 504.83 563.62C520.37 563.62 534.97 557.58 545.95 546.59C546.02 546.53 546.53 546.01 546.6 545.95C557.58 534.96 563.63 520.36 563.63 504.83C563.63 489.29 557.58 474.69 546.6 463.71C544.91 462.02 536.47 453.59 521.28 438.4C512.39 435.01 506.25 435.01 502.86 438.4Z" id="hj5VsKv4N"></path><path d="M556.51 261.39C550.67 237.69 541.33 215.18 528.66 194.23C530.45 192.43 544.8 178.08 546.6 176.29C569.27 153.62 569.27 116.72 546.6 94.05C546.53 93.98 546.02 93.47 545.95 93.4C534.97 82.42 520.37 76.37 504.83 76.37C489.3 76.37 474.69 82.42 463.72 93.4C461.92 95.2 447.57 109.55 445.78 111.34C424.82 98.67 402.31 89.33 378.61 83.49C378.61 80.96 378.61 60.69 378.61 58.15C378.61 26.09 352.52 0 320.46 0C320.36 0 319.64 0 319.54 0C287.48 0 261.39 26.09 261.39 58.15C261.39 61.73 261.39 90.35 261.39 93.92C261.39 101.11 267.23 106.95 274.42 106.95C281.61 106.95 287.44 101.11 287.44 93.92C287.44 90.35 287.44 61.73 287.44 58.15C287.44 40.45 301.84 26.05 319.54 26.05C319.64 26.05 320.36 26.05 320.46 26.05C338.16 26.05 352.56 40.45 352.56 58.15C352.56 61.73 352.56 90.35 352.56 93.92C352.56 100.13 356.94 105.47 363.02 106.69C390.73 112.25 416.76 123.04 440.39 138.77C445.55 142.21 452.42 141.53 456.81 137.14C459.35 134.61 479.6 114.35 482.13 111.82C488.19 105.76 496.26 102.42 504.83 102.42C513.41 102.42 521.47 105.76 527.53 111.82C527.6 111.89 528.11 112.4 528.18 112.47C534.24 118.53 537.58 126.59 537.58 135.17C537.58 143.75 534.24 151.81 528.18 157.87C525.65 160.4 505.39 180.65 502.86 183.18C498.47 187.57 497.79 194.45 501.23 199.61C516.96 223.24 527.75 249.26 533.31 276.98C534.53 283.06 539.87 287.44 546.08 287.44C549.65 287.44 578.27 287.44 581.85 287.44C599.55 287.44 613.95 301.84 613.95 319.54C613.95 319.64 613.95 320.37 613.95 320.46C613.95 338.16 599.55 352.56 581.85 352.56C578.27 352.56 549.65 352.56 546.08 352.56C538.89 352.56 533.05 358.39 533.05 365.58C533.05 372.77 538.89 378.61 546.08 378.61C549.65 378.61 578.27 378.61 581.85 378.61C613.91 378.61 640 352.52 640 320.46C640 320.37 640 319.64 640 319.54C640 287.48 613.91 261.39 581.85 261.39C576.78 261.39 559.04 261.39 556.51 261.39Z" id="a5bNsv3SU3"></path><path d="M289.13 358.14C283.55 353.61 275.35 354.47 270.82 360.05C266.29 365.64 267.14 373.84 272.73 378.37C286.05 389.17 302.83 395.11 320 395.11C361.41 395.11 395.11 361.42 395.11 320C395.11 278.58 361.42 244.89 320 244.89C278.58 244.89 244.89 278.58 244.89 320C244.89 327.19 250.72 333.02 257.92 333.02C265.11 333.02 270.94 327.19 270.94 320C270.94 292.95 292.95 270.94 320 270.94C347.05 270.94 369.06 292.95 369.06 320C369.06 347.05 347.05 369.06 320 369.06C308.62 369.06 297.95 365.28 289.13 358.14Z" id="a5J7UrqkC"></path></defs><g><g><g><use xlink:href="#hj5VsKv4N" opacity="1" fill="#0a6118" fill-opacity="1"></use><g><use xlink:href="#hj5VsKv4N" opacity="1" fill-opacity="0" stroke="#000000" stroke-width="1" stroke-opacity="0"></use></g></g><g><use xlink:href="#a5bNsv3SU3" opacity="1" fill="#0a6118" fill-opacity="1"></use><g><use xlink:href="#a5bNsv3SU3" opacity="1" fill-opacity="0" stroke="#000000" stroke-width="1" stroke-opacity="0"></use></g></g><g><use xlink:href="#a5J7UrqkC" opacity="1" fill="#0a6118" fill-opacity="1"></use><g><use xlink:href="#a5J7UrqkC" opacity="1" fill-opacity="0" stroke="#000000" stroke-width="1" stroke-opacity="0"></use></g></g></g></g></svg>