<?xml version="1.0" encoding="UTF-8" standalone="no"?>
<!DOCTYPE svg PUBLIC "-//W3C//DTD SVG 1.1//EN" "http://www.w3.org/Graphics/SVG/1.1/DTD/svg11.dtd">
<svg version="1.1" xmlns="http://www.w3.org/2000/svg" xmlns:xlink="http://www.w3.org/1999/xlink" preserveAspectRatio="xMidYMid meet" viewBox="0 0 640 640" width="640" height="640"><defs><path d="M640 320C640 496.61 496.61 640 320 640C143.38 640 0 496.61 0 320C0 143.39 143.38 0 320 0C496.61 0 640 143.39 640 320Z" id="an4OP2Pau"></path><path d="" id="b2tLnBXzYp"></path><path d="M320 517.55L320 235.91" id="b3lXLy0EwA"></path><path d="M116.94 159.38L320 235.91" id="bzoS1vedn"></path><path d="M523.05 159.38L320 235.91" id="d2kz3PWZzp"></path><path d="M116.94 422.65L116.94 159.38" id="a5n1gCkTB3"></path><path d="M523.05 422.65L523.05 159.38" id="bztwyNsps"></path><path d="M320 517.55L116.94 422.65" id="b59yxSp9Q"></path><path d="M523.05 422.65L320 517.55" id="a1OSS8RJdk"></path><path d="M320 90L116.94 159.38" id="g3twhzvRcs"></path><path d="M320 90L523.05 159.38" id="ebVCaE1YI"></path><path d="M121.94 159.38C121.94 162.14 119.7 164.38 116.94 164.38C114.18 164.38 111.94 162.14 111.94 159.38C111.94 156.62 114.18 154.38 116.94 154.38C119.7 154.38 121.94 156.62 121.94 159.38Z" id="chpNho500"></path><path d="M324 88.89C324 91.1 322.2 92.89 320 92.89C317.79 92.89 316 91.1 316 88.89C316 86.68 317.79 84.89 320 84.89C322.2 84.89 324 86.68 324 88.89Z" id="etVWbAQeY"></path><path d="M528.05 159.38C528.05 162.14 525.81 164.38 523.05 164.38C520.29 164.38 518.05 162.14 518.05 159.38C518.05 156.62 520.29 154.38 523.05 154.38C525.81 154.38 528.05 156.62 528.05 159.38Z" id="fmNrrdz5V"></path><path d="M119.96 423.25C119.96 425.46 118.17 427.25 115.96 427.25C113.75 427.25 111.96 425.46 111.96 423.25C111.96 421.04 113.75 419.25 115.96 419.25C118.17 419.25 119.96 421.04 119.96 423.25Z" id="b880DKcY"></path><path d="M528.05 423.32C528.05 425.53 526.25 427.32 524.05 427.32C521.84 427.32 520.05 425.53 520.05 423.32C520.05 421.11 521.84 419.32 524.05 419.32C526.25 419.32 528.05 421.11 528.05 423.32Z" id="b3icge4Ir8"></path><path d="M324 518.55C324 520.75 322.2 522.55 320 522.55C317.79 522.55 316 520.75 316 518.55C316 516.34 317.79 514.55 320 514.55C322.2 514.55 324 516.34 324 518.55Z" id="a3aKXTayOm"></path></defs><g><g><g><use xlink:href="#an4OP2Pau" opacity="1" fill="#1ee4d4" fill-opacity="1"></use><g><use xlink:href="#an4OP2Pau" opacity="1" fill-opacity="0" stroke="#ba56b3" stroke-width="0" stroke-opacity="1"></use></g></g><g><g><use xlink:href="#b2tLnBXzYp" opacity="1" fill-opacity="0" stroke="#ffffff" stroke-width="10" stroke-opacity="1"></use></g></g><g><g><use xlink:href="#b3lXLy0EwA" opacity="1" fill-opacity="0" stroke="#ffffff" stroke-width="10" stroke-opacity="1"></use></g></g><g><g><use xlink:href="#bzoS1vedn" opacity="1" fill-opacity="0" stroke="#ffffff" stroke-width="10" stroke-opacity="1"></use></g></g><g><g><use xlink:href="#d2kz3PWZzp" opacity="1" fill-opacity="0" stroke="#ffffff" stroke-width="10" stroke-opacity="1"></use></g></g><g><g><use xlink:href="#a5n1gCkTB3" opacity="1" fill-opacity="0" stroke="#ffffff" stroke-width="10" stroke-opacity="1"></use></g></g><g><g><use xlink:href="#bztwyNsps" opacity="1" fill-opacity="0" stroke="#ffffff" stroke-width="10" stroke-opacity="1"></use></g></g><g><g><use xlink:href="#b59yxSp9Q" opacity="1" fill-opacity="0" stroke="#ffffff" stroke-width="10" stroke-opacity="1"></use></g></g><g><g><use xlink:href="#a1OSS8RJdk" opacity="1" fill-opacity="0" stroke="#ffffff" stroke-width="10" stroke-opacity="1"></use></g></g><g><g><use xlink:href="#g3twhzvRcs" opacity="1" fill-opacity="0" stroke="#ffffff" stroke-width="10" stroke-opacity="1"></use></g></g><g><g><use xlink:href="#ebVCaE1YI" opacity="1" fill-opacity="0" stroke="#ffffff" stroke-width="10" stroke-opacity="1"></use></g></g><g><use xlink:href="#chpNho500" opacity="1" fill="#ffffff" fill-opacity="1"></use></g><g><use xlink:href="#etVWbAQeY" opacity="1" fill="#ffffff" fill-opacity="1"></use></g><g><use xlink:href="#fmNrrdz5V" opacity="1" fill="#ffffff" fill-opacity="1"></use></g><g><use xlink:href="#b880DKcY" opacity="1" fill="#ffffff" fill-opacity="1"></use></g><g><use xlink:href="#b3icge4Ir8" opacity="1" fill="#ffffff" fill-opacity="1"></use></g><g><use xlink:href="#a3aKXTayOm" opacity="1" fill="#ffffff" fill-opacity="1"></use></g></g></g></svg>