<?xml version="1.0" standalone="no"?>
<!DOCTYPE svg PUBLIC "-//W3C//DTD SVG 20010904//EN"
 "http://www.w3.org/TR/2001/REC-SVG-20010904/DTD/svg10.dtd">
<svg version="1.0" xmlns="http://www.w3.org/2000/svg"
 width="700.000000pt" height="700.000000pt" viewBox="0 0 700.000000 700.000000"
 preserveAspectRatio="xMidYMid meet">
<metadata>
Created by potrace 1.11, written by Peter Selinger 2001-2013
</metadata>
<g transform="translate(0.000000,700.000000) scale(0.100000,-0.100000)"
fill="#000000" stroke="none">
<path d="M945 6918 c-327 -25 -620 -228 -774 -535 -91 -182 -118 -452 -66
-654 55 -212 207 -428 382 -546 l62 -41 -86 -63 c-220 -163 -357 -407 -380
-675 -26 -302 80 -584 294 -784 32 -30 76 -69 97 -85 l39 -30 -55 -42 c-515
-388 -503 -1172 23 -1542 36 -25 67 -49 70 -53 2 -3 -25 -26 -61 -49 -138 -93
-270 -254 -337 -412 -43 -102 -61 -175 -70 -283 -35 -407 167 -767 534 -953
181 -91 452 -118 654 -66 219 57 432 209 556 398 l49 75 51 -76 c296 -446 912
-559 1349 -247 73 52 170 147 216 212 l33 45 30 -38 c162 -207 353 -330 592
-379 98 -20 278 -20 377 0 216 45 415 166 552 336 32 41 62 76 66 79 4 3 36
-31 71 -75 70 -89 183 -185 281 -240 276 -154 633 -156 913 -5 233 126 400
335 475 596 20 69 23 101 22 249 0 156 -2 177 -27 258 -67 216 -208 412 -380
527 -32 21 -57 43 -56 47 2 4 30 27 62 50 176 122 308 305 374 520 25 81 27
101 27 263 0 162 -2 182 -27 263 -63 206 -196 395 -358 510 l-46 33 54 39
c118 86 233 228 299 369 65 143 79 211 78 401 0 156 -2 177 -27 258 -52 169
-132 303 -252 420 -40 40 -97 88 -128 107 -31 19 -56 37 -56 40 0 3 25 21 55
40 166 105 314 310 381 527 25 81 27 102 27 258 1 148 -2 180 -22 249 -104
359 -379 617 -739 691 -88 18 -250 21 -348 5 -219 -35 -441 -166 -581 -343
-34 -43 -64 -79 -66 -80 -3 -1 -33 33 -68 77 -186 231 -449 357 -745 357 -314
0 -574 -132 -780 -395 l-30 -38 -33 45 c-46 65 -143 160 -216 212 -437 312
-1053 199 -1349 -247 l-51 -76 -49 75 c-124 189 -337 341 -556 398 -83 21
-222 31 -326 23z m268 -441 c179 -65 301 -194 352 -369 l16 -58 279 0 278 0
21 68 c45 149 140 260 280 330 158 79 317 80 478 2 335 -162 412 -606 152
-870 -105 -107 -238 -162 -389 -162 -247 0 -456 158 -525 395 l-16 57 -279 0
-278 0 -21 -68 c-50 -166 -194 -311 -360 -363 -85 -26 -223 -28 -307 -4 -223
64 -379 254 -399 487 -23 262 165 514 429 574 83 19 207 10 289 -19z m3220 18
c211 -44 377 -215 423 -435 35 -170 -22 -355 -152 -484 -105 -106 -232 -158
-384 -158 -100 0 -178 19 -263 65 l-57 32 -437 -437 -437 -437 31 -58 c46 -86
66 -166 66 -263 0 -150 -53 -279 -159 -384 -213 -213 -556 -214 -769 -1 -213
213 -213 557 0 770 172 172 429 208 648 92 l58 -31 436 437 437 436 -31 58
c-116 219 -79 477 94 650 129 130 317 186 496 148z m1638 1 c266 -57 458 -310
434 -574 -20 -234 -178 -426 -403 -488 l-62 -17 0 -277 0 -276 51 -13 c154
-40 286 -146 356 -288 80 -160 81 -318 3 -480 -162 -335 -606 -412 -870 -152
-107 105 -162 238 -162 389 0 249 160 459 400 526 l62 17 0 277 0 276 -72 21
c-171 50 -316 193 -369 362 -28 91 -28 232 0 321 40 124 111 222 211 289 133
88 275 118 421 87z m-4879 -1652 c178 -53 321 -197 373 -378 23 -77 23 -214 0
-292 -52 -183 -199 -329 -383 -380 l-62 -17 0 -277 0 -277 62 -17 c184 -51
331 -197 383 -380 23 -78 23 -215 0 -292 -53 -184 -194 -325 -380 -380 -92
-27 -231 -24 -317 8 -153 57 -248 141 -316 277 -154 307 12 674 346 767 l62
17 0 277 0 277 -62 17 c-270 75 -444 344 -398 614 15 89 72 209 132 277 73 82
202 154 318 175 59 11 175 3 242 -16z m3281 -1 c232 -68 391 -280 391 -523 0
-100 -21 -178 -71 -269 l-35 -64 431 -430 430 -431 58 31 c89 48 165 66 268
66 109 -1 196 -26 282 -82 169 -109 255 -267 254 -466 -1 -150 -53 -276 -160
-382 -104 -104 -233 -157 -386 -157 -255 0 -477 180 -530 431 -18 85 -18 140
-1 225 15 67 64 178 94 211 15 17 -8 42 -414 448 l-431 431 -64 -35 c-90 -50
-169 -70 -269 -70 -100 0 -179 20 -269 70 l-64 35 -434 -435 -435 -434 35 -64
c50 -90 70 -169 70 -269 0 -304 -239 -544 -543 -544 -100 0 -178 21 -269 71
l-64 34 -434 -433 c-238 -238 -433 -436 -433 -440 0 -4 14 -29 30 -55 69 -109
93 -288 55 -419 -64 -223 -254 -379 -487 -399 -323 -29 -612 260 -583 583 20
233 176 423 399 487 131 38 310 14 419 -55 26 -16 51 -30 55 -30 4 0 202 195
440 433 l433 434 -34 64 c-121 221 -86 480 88 654 104 104 236 158 385 158
100 0 179 -20 269 -70 l64 -35 434 435 435 434 -35 64 c-51 93 -70 168 -70
274 3 269 188 487 456 535 64 11 171 4 240 -17z m-3 -1640 c232 -64 394 -278
394 -523 0 -304 -240 -544 -544 -544 -99 0 -178 21 -266 69 l-61 33 -389 -396
c-214 -217 -408 -417 -431 -442 l-42 -47 28 -54 c44 -81 64 -163 64 -259 0
-213 -115 -397 -306 -490 -162 -78 -320 -77 -480 3 -334 166 -405 608 -141
871 177 178 453 211 668 81 l59 -36 397 403 c218 222 411 419 429 440 l32 36
-35 64 c-118 217 -85 476 85 648 144 146 340 198 539 143z m0 -1640 c188 -51
347 -222 383 -411 l12 -62 277 0 278 0 0 24 c0 45 40 152 79 213 107 165 265
254 457 255 242 2 436 -135 520 -367 111 -305 -84 -643 -410 -712 -174 -37
-366 24 -497 158 -58 59 -123 172 -135 235 l-6 34 -288 0 -288 0 -6 -34 c-13
-67 -78 -179 -140 -242 -167 -167 -409 -207 -623 -104 -335 162 -412 606 -152
870 142 144 341 197 539 143z"/>
</g>
</svg>
